<svg width="400" height="400" viewBox="0 0 400 400" fill="none" xmlns="http://www.w3.org/2000/svg">
<g clip-path="url(#clip0_98_3)">
<rect width="400" height="400" fill="white"/>
<g clip-path="url(#clip1_98_3)">
<path d="M177.147 112.59C177.798 109.46 178.369 106.48 178.88 103.69C190.187 40.53 167.573 87.39 150.438 -5.07001C141.445 -53.64 142.296 -142.23 109.067 -160.85" stroke="black" stroke-width="3.49" stroke-linecap="round" stroke-linejoin="round"/>
<path d="M85.5923 102.45C91.5912 129.51 93.3738 159.36 115.296 148.61C128.736 142 118.19 179.6 142.797 180.01C167.403 180.42 174.824 127.3 174.824 127.3" stroke="black" stroke-width="3.49" stroke-linecap="round" stroke-linejoin="round"/>
<path d="M154.434 200.6C154.274 200.89 154.113 201.16 153.963 201.43C138.44 227.62 114.575 229.98 104.11 211.03C99.1323 202.04 95.9977 198.24 88.6769 196.53" stroke="black" stroke-width="3.49" stroke-linecap="round" stroke-linejoin="round"/>
<path d="M248.343 112.59C247.692 109.46 247.121 106.48 246.61 103.69C235.303 40.53 257.917 87.39 275.052 -5.07001C284.045 -53.64 283.194 -142.23 316.423 -160.85" stroke="black" stroke-width="3.49" stroke-linecap="round" stroke-linejoin="round"/>
<path d="M339.898 102.45C333.899 129.51 332.116 159.36 310.194 148.61C296.754 142 307.3 179.6 282.693 180.01C258.087 180.42 250.666 127.3 250.666 127.3" stroke="black" stroke-width="3.49" stroke-linecap="round" stroke-linejoin="round"/>
<path d="M271.056 200.6C271.216 200.89 271.377 201.16 271.527 201.43C287.05 227.62 310.915 229.98 321.38 211.03C326.358 202.04 329.492 198.24 336.813 196.53" stroke="black" stroke-width="3.49" stroke-linecap="round" stroke-linejoin="round"/>
<path d="M212.57 -37.02C210.387 -37.02 210.797 -28.69 210.276 -11.5C208.414 18.61 191.499 57.28 186.862 72.57C184.498 80.32 181.554 90.87 178.88 103.7L178.83 104.02C178.309 106.49 177.808 109.06 177.328 111.7C176.416 116.63 175.555 121.83 174.824 127.3C174.784 127.5 174.774 127.69 174.734 127.89C173.913 133.93 173.232 140.27 172.711 146.9C171.459 163.14 168.024 174.27 164.158 182.8" stroke="black" stroke-width="3.49" stroke-linecap="round" stroke-linejoin="round"/>
<path d="M164.168 182.84C160.893 190.09 157.298 195.47 154.434 200.6C154.224 200.96 154.023 201.33 153.803 201.69C153.442 202.37 153.102 203.03 152.761 203.71C146.733 215.79 145.361 208.28 149.987 249.51C158.32 310.19 147.434 300.94 143.257 315.05C122.146 382.45 123.578 398.98 125.101 416.06C126.623 433.14 121.806 435.39 121.806 435.39C121.806 435.39 120.444 442.93 121.325 449.9C125.261 472.61 120.934 475.58 114.185 479.42C107.445 483.26 102.607 485.76 102.768 490.48C103.979 505.17 87.9959 509.65 87.9959 509.65C75.6376 531.24 61.9875 517.35 61.9875 517.35C55.6581 522.96 50.5907 515.83 50.5907 515.83C44.4917 517.51 42.8793 511.01 42.8793 511.01C38.3927 511.17 38.4628 506.53 38.4628 506.53C34.3667 506.46 31.4824 503.01 34.7773 495.06C39.6645 484.23 49.2086 477.75 56.3692 471.97C63.5097 466.18 61.677 465.88 64.6714 460.87C67.6358 455.88 79.1228 438.57 80.8253 432.92C81.0056 427.31 81.7066 422.91 83.5293 412.12C86.744 394.68 80.9354 363.36 78.3416 334.93C63.5798 250.91 86.734 204.78 88.6669 196.52C88.6869 196.47 88.6869 196.39 88.7069 196.34C90.3193 188.59 89.3479 183.74 90.6398 176.63C91.9417 169.54 94.195 169.86 94.5255 142.72C90.6398 129.43 87.7255 115.95 85.6023 102.52C85.5823 102.5 85.5823 102.48 85.5823 102.45C69.6087 1.64011 98.0808 -97.41 100.825 -108.2C102.828 -116.1 106.313 -139.15 109.067 -160.84C109.197 -161.8 109.317 -162.77 109.427 -163.73C110.79 -174.61 111.951 -184.96 112.612 -192.64C114.635 -216.19 122.377 -242.06 110.129 -266.38C89.6683 -305.76 84.7311 -329.85 83.9098 -334.6C83.7997 -335.19 83.7696 -335.48 83.7696 -335.48C78.9725 -323.7 70.2797 -316.9 65.9333 -312.86C63.73 -310.82 54.1459 -298.46 44.1612 -285.24C34.4669 -272.39 24.392 -258.72 20.336 -252.92C7.61721 -232.46 10.5716 -227.98 -10.6798 -201.48C-31.9311 -174.98 -42.0361 -174.77 -61.3546 -154.58C-62.5363 -153.06 -65.9113 -148.38 -68.2448 -143.98H-68.2648C-70.0574 -140.59 -71.2292 -137.37 -70.2477 -135.9C-64.6995 -128.27 -67.7941 -119.85 -70.5482 -116.48C-73.3022 -113.12 -74.6642 -108.42 -75.7759 -99.77C-77.0678 -85.21 -74.9847 -72.9899 -85.1697 -73.1799C-95.3448 -73.3799 -92.5907 -100.07 -92.5907 -100.07C-92.5907 -100.07 -96.4864 -99.14 -98.9601 -94.08C-102.605 -81.8 -106.702 -83.3199 -108.544 -75.5899C-110.617 -61.3699 -112.73 -64.7999 -110.177 -50.6499C-109.796 -48.5599 -109.726 -46.7899 -109.876 -45.3099C-110.717 -36.7699 -118.91 -37.5199 -118.91 -37.5199C-118.91 -37.5199 -123.847 -54.6899 -124.057 -58.0299C-124.267 -61.3699 -124.718 -66.9999 -122.695 -83.7199C-120.672 -100.44 -123.897 -94.05 -116.236 -109.02C-104.408 -131.32 -103.587 -144.33 -96.2761 -160.02C-96.2761 -160.02 -96.2962 -160.02 -96.2761 -160.04C-95.3948 -161.93 -94.4134 -163.88 -93.3118 -165.88C-80.4728 -193.54 -61.2244 -251.27 -41.976 -274.41C-22.7276 -297.53 -16.5084 -299.85 -12.3222 -309.97C-5.25177 -326.61 0.446641 -338.63 5.11353 -347.42C15.579 -367.24 20.6565 -370.77 23.4806 -374.1C24.4621 -375.26 25.1631 -376.41 25.734 -378.21C34.1263 -410.16 37.0206 -411.89 39.3441 -420.13C53.0843 -464.94 91.5711 -467.39 94.9061 -468.27C96.2481 -468.61 98.6616 -469.22 101.185 -469.86C101.235 -469.88 101.275 -469.88 101.316 -469.88C105.071 -470.84 109.027 -471.88 109.968 -472.31C111.561 -473.04 119.803 -480.4 124.87 -482.73C129.928 -485.04 150.628 -493.43 155.836 -496.02C161.044 -498.63 170.448 -507.88 170.448 -507.88C170.678 -510.31 170.878 -515.08 171.018 -520.48V-520.59C171.319 -532.45 171.469 -547.34 171.469 -547.34C168.575 -553.13 167.994 -562.96 167.994 -562.96C160.753 -561.51 155.546 -564.84 154.093 -584.06C152.641 -603.28 163.968 -599.64 163.968 -599.64" stroke="black" stroke-width="3.49" stroke-linecap="round" stroke-linejoin="round"/>
<path d="M212.92 -37.02C215.093 -37.02 214.693 -28.7 215.204 -11.51C217.066 18.6 233.981 57.28 238.618 72.56C243.255 87.85 250.215 114.02 252.759 146.91C255.303 179.8 266.67 191.61 272.698 203.7C278.727 215.79 280.119 208.28 275.483 249.51C267.14 310.19 278.036 300.92 282.203 315.05C303.294 382.45 301.882 398.97 300.349 416.06C298.817 433.15 303.644 435.39 303.644 435.39C303.644 435.39 305.006 442.93 304.125 449.91C300.199 472.6 304.525 475.57 311.275 479.42C318.015 483.27 322.833 485.76 322.672 490.49C321.471 505.17 337.444 509.65 337.444 509.65C349.802 531.23 363.462 517.35 363.462 517.35C369.802 522.96 374.859 515.83 374.859 515.83C380.958 517.51 382.571 511.01 382.571 511.01C387.067 511.18 386.987 506.53 386.987 506.53C391.083 506.44 393.967 503 390.683 495.06C385.785 484.23 376.231 477.73 369.081 471.96C361.94 466.18 363.763 465.87 360.789 460.87C357.824 455.88 346.337 438.57 344.625 432.91C344.454 427.3 343.753 422.91 341.931 412.12C338.696 394.68 344.515 363.35 347.108 334.92C361.98 250.29 338.375 204.09 336.753 196.34C335.141 188.59 336.102 183.74 334.81 176.64C333.518 169.53 331.255 169.86 330.934 142.72C363.923 29.66 327.74 -95.97 324.635 -108.21C321.531 -120.45 314.861 -169.1 312.848 -192.65C310.835 -216.2 303.073 -242.08 315.331 -266.4C338.285 -310.56 341.7 -335.51 341.7 -335.51C346.497 -323.73 355.19 -316.92 359.537 -312.89C363.873 -308.86 396.912 -264.7 405.134 -252.93C417.853 -232.48 414.908 -227.99 436.16 -201.49C457.411 -175 467.516 -174.77 486.845 -154.6C488.928 -151.87 497.961 -139.26 495.728 -135.92C490.18 -128.3 493.274 -119.87 496.038 -116.51C498.792 -113.14 500.154 -108.43 501.246 -99.79C502.538 -85.23 500.465 -73 510.65 -73.21C520.835 -73.41 518.061 -100.09 518.061 -100.09C518.061 -100.09 521.976 -99.16 524.44 -94.1C528.085 -81.83 532.181 -83.36 534.014 -75.62C536.097 -61.39 538.2 -64.83 535.647 -50.67C533.093 -36.51 544.38 -37.54 544.38 -37.54C544.38 -37.54 549.317 -54.7 549.537 -58.05C549.747 -61.39 550.178 -67.02 548.165 -83.74C546.152 -100.47 549.367 -94.07 541.716 -109.05C528.456 -134.06 529.027 -147.38 518.782 -165.91C505.943 -193.56 486.694 -251.3 467.446 -274.43C448.208 -297.56 441.978 -299.87 437.782 -309.99C409.28 -377.21 402.62 -368.96 399.726 -378.22C391.334 -410.16 388.439 -411.9 386.126 -420.14C372.386 -464.95 333.889 -467.41 330.564 -468.28C327.229 -469.15 317.104 -471.6 315.512 -472.33C313.919 -473.05 305.667 -480.43 300.61 -482.73C295.542 -485.05 274.842 -493.43 269.644 -496.04C264.436 -498.64 255.032 -507.89 255.032 -507.89C254.311 -515.7 254.021 -547.36 254.021 -547.36C256.915 -553.14 257.486 -562.97 257.486 -562.97C264.727 -561.52 269.934 -564.85 271.387 -584.07C272.308 -596.36 268.012 -599.31 264.807 -599.83C263.685 -600 262.684 -599.89 262.093 -599.79" stroke="black" stroke-width="3.49" stroke-linecap="round" stroke-linejoin="round"/>
<path d="M275.122 -5.07001C255.864 97.15 276.775 143.07 259.489 158.64" stroke="black" stroke-width="3.49" stroke-linecap="round" stroke-linejoin="round"/>
<path d="M312.257 149.49C265.758 130.54 331.776 20.1 304.005 -148.59" stroke="black" stroke-width="3.49" stroke-linecap="round" stroke-linejoin="round"/>
<path d="M323.073 208.19C329.122 293.24 331.075 319.95 331.996 416.75" stroke="black" stroke-width="3.49" stroke-linecap="round" stroke-linejoin="round"/>
<path d="M295.993 222.63C296.063 223.13 312.918 341.65 318.616 417.27" stroke="black" stroke-width="3.49" stroke-linecap="round" stroke-linejoin="round"/>
<path d="M150.368 -5.07001C169.626 97.15 148.715 143.07 166.001 158.64" stroke="black" stroke-width="3.49" stroke-linecap="round" stroke-linejoin="round"/>
<path d="M113.243 149.49C159.742 130.54 93.7243 20.1 121.495 -148.59" stroke="black" stroke-width="3.49" stroke-linecap="round" stroke-linejoin="round"/>
<path d="M102.417 208.19C96.3682 293.24 94.4153 319.95 93.494 416.75" stroke="black" stroke-width="3.49" stroke-linecap="round" stroke-linejoin="round"/>
<path d="M129.497 222.63C129.427 223.13 112.572 341.65 106.874 417.27" stroke="black" stroke-width="3.49" stroke-linecap="round" stroke-linejoin="round"/>
<path d="M121.5 222.5C132 223.5 137.888 219.08 144.5 212C163.885 187.644 167.971 176.159 171.5 150C164.247 167.586 159 175.5 151 179C143 182.5 135.5 180 129.5 174C123.5 168 122.049 149.019 119.5 149C116.951 148.981 104.449 155.543 96 146C94.7043 159.94 88.9272 194 90.2136 196C91.5 198 102.5 204.5 103.214 206C103.927 207.5 111 221.5 121.5 222.5Z" fill="#FB6565" stroke="black"/>
</g>
<path d="M304 222.5C293.5 223.5 287.612 219.08 281 212C261.615 187.644 257.529 176.159 254 150C261.253 167.586 266.5 175.5 274.5 179C282.5 182.5 290 180 296 174C302 168 303.451 149.019 306 149C308.549 148.981 321.051 155.543 329.5 146C330.796 159.94 336.573 194 335.286 196C334 198 323 204.5 322.286 206C321.573 207.5 314.5 221.5 304 222.5Z" fill="#FB6565" stroke="black"/>
</g>
<defs>
<clipPath id="clip0_98_3">
<rect width="400" height="400" fill="white"/>
</clipPath>
<clipPath id="clip1_98_3">
<rect width="677.49" height="1203.49" fill="white" transform="translate(-126 -680)"/>
</clipPath>
</defs>
</svg>
