<svg width="400" height="400" viewBox="0 0 400 400" fill="none" xmlns="http://www.w3.org/2000/svg">
<g clip-path="url(#clip0_29_143)">
<rect width="400" height="400" fill="white"/>
<g clip-path="url(#clip1_29_143)">
<path d="M388.25 144.07C385.43 142.23 382.45 140.6 379.32 139.21C376.27 137.85 373.35 136.82 370.64 136.03C370.6 136.03 370.57 136.01 370.53 136.01C366.44 134.81 362.85 134.21 360.1 133.88C360.05 133.86 359.99 133.86 359.96 133.86C359.96 133.86 359.947 133.853 359.92 133.84C357.6 133.27 355.45 132.68 353.49 132.05C353.13 121.92 351.1 106.62 343.52 90.97C334.63 72.6 320.25 58.2 300.8 48.17C304.37 48.31 307.98 48.71 311.55 49.42H311.59C312.66 49.69 313.7 49.96 314.66 50.21C315.95 50.53 317.07 50.82 317.82 51.01C318.11 51.08 318.61 51.17 319.32 51.28C353.42 56.78 367.42 80.26 373.15 98.99C373.9 101.65 374.7 103.65 375.74 106.17C377.85 111.39 381.06 119.27 386.74 140.92C387.15 142.22 387.63 143.19 388.24 144.05L388.25 144.07Z" fill="#FB6565"/>
<path d="M99.69 48.19C80.24 58.21 65.86 72.62 56.97 90.99C49.4 106.62 47.38 121.92 47.02 132.05C45.06 132.69 42.93 133.28 40.63 133.85C40.61 133.85 40.58 133.87 40.56 133.87C40.51 133.87 40.45 133.87 40.4 133.89C37.65 134.21 34.06 134.82 29.97 136.02H29.93C29.88 136.02 29.84 136.04 29.81 136.06C27.11 136.85 24.2 137.88 21.18 139.22C18.07 140.61 15.09 142.24 12.27 144.08C12.91 143.13 13.36 142.15 13.75 140.94C19.45 119.25 22.64 111.39 24.77 106.17C25.79 103.67 26.59 101.69 27.34 99.02C33.07 80.31 47.06 56.85 81.16 51.31C81.87 51.2 82.37 51.11 82.66 51.04L82.79 51C84.15 50.66 86.47 50.07 88.92 49.45H88.94L89.01 49.43H89.06C89.06 49.43 89.13 49.41 89.17 49.39C92.67 48.71 96.21 48.34 99.71 48.19H99.69Z" fill="#FB6565"/>
<path d="M353.03 131.92C348.51 130.45 344.96 128.85 342.42 127.13C329.11 118.11 318.68 105.87 313.68 99.99L313.63 99.94C308.91 94.37 305.45 89.79 302.4 85.75C295.65 76.78 291.18 70.87 280.15 63.86C273.56 59.66 265.65 56.68 262.13 55.44H262.11C262.09 55.39 262.06 55.37 262 55.35C261.71 55.28 261.45 55.19 261.16 55.12C261.07 55.08 260.98 55.07 260.89 55.03C264.21 53.76 281.23 47.67 299.79 48.17H299.81C344.25 70.65 352.25 110.16 353.04 131.92H353.03Z" fill="#FB6565"/>
<path d="M139.59 55.03C139.5 55.07 139.43 55.08 139.34 55.12C139.05 55.19 138.79 55.28 138.5 55.35C138.45 55.37 138.41 55.39 138.39 55.44H138.37C134.85 56.67 126.94 59.66 120.35 63.86C109.31 70.86 104.85 76.78 98.1 85.75C95.05 89.79 91.58 94.36 86.85 99.94L86.81 99.99C81.79 105.87 71.38 118.11 58.07 127.13C55.53 128.85 51.98 130.45 47.48 131.9C48.25 110.14 56.29 70.63 100.71 48.17C119.23 47.67 136.24 53.74 139.59 55.03Z" fill="#FB6565"/>
<path d="M103.58 357.95C160.93 357.95 149.92 397.54 200.24 397.54C250.56 397.54 239.83 357.95 296.9 357.95" stroke="#484A68" stroke-width="3.49" stroke-linecap="round" stroke-linejoin="round"/>
<path d="M200.42 340.51V408.06" stroke="black" stroke-width="3.49" stroke-linecap="round" stroke-linejoin="round"/>
<path d="M200.19 340.51V408.06" stroke="black" stroke-width="3.49" stroke-linecap="round" stroke-linejoin="round"/>
<path d="M200.07 340.51V408.06" stroke="black" stroke-width="3.49" stroke-linecap="round" stroke-linejoin="round"/>
<path d="M11.27 143.89C14.1 141.98 17.43 140.05 21.26 138.33C32.89 133.13 42.74 132.77 44.73 132.71C53.37 132.46 61.6 132.24 67.74 137.25C78.6 146.09 75.5 165.27 74.31 172.62C73.68 176.46 72.74 180.04 71.59 183.39" stroke="black" stroke-width="3.49" stroke-linecap="round" stroke-linejoin="round"/>
<path d="M31.9 232.75C13.03 255.8 -3.20996 255.69 -10.99 251.85C-24.02 245.42 -31.35 224.34 -7.08996 170.63C-7.08996 170.61 -7.08997 170.58 -7.06997 170.56" stroke="black" stroke-width="3.49" stroke-linecap="round" stroke-linejoin="round"/>
<path d="M29.9199 135.16H29.9599" stroke="black" stroke-width="3.49" stroke-linecap="round" stroke-linejoin="round"/>
<path d="M40.3999 133.03H40.4399C48.2499 131.12 54.3899 128.82 58.2099 126.22C71.5699 117.16 82.1499 104.72 87.0299 98.99C102.21 81.14 104.49 73.11 120.48 62.95C129.27 57.37 140.27 53.97 140.27 53.97C140.27 53.97 113.84 43.11 88.8599 48.13H88.8399" stroke="black" stroke-width="3.49" stroke-linecap="round" stroke-linejoin="round"/>
<path d="M139.69 54.14C144.21 52.87 153.44 49.42 171.22 51.11C200.38 53.88 200.07 73.1 200.07 73.1V123.04C200.07 133.24 196.59 143.19 189.99 150.96C184.35 157.59 176.07 164.92 164.44 170C135.82 182.51 102.31 173.66 82.44 149.56C74.98 140.51 66.77 132.61 52.04 132.61" stroke="black" stroke-width="3.49" stroke-linecap="round" stroke-linejoin="round"/>
<path d="M158.59 -2.58997V34.58C158.59 46.3 151.38 50.26 140.27 53.97C139.72 54.16 139.14 54.33 138.56 54.49" stroke="black" stroke-width="3.49" stroke-linecap="round" stroke-linejoin="round"/>
<path d="M200.07 175.65C200.07 159 174.55 166.25 164.44 169.99C153.45 174.06 144.62 178.65 141.72 185.21C138.23 193.09 145.5 197.97 146.36 218.67C146.58 224.06 146.08 223.37 146.17 234.14C146.27 245.37 148.52 294.8 150.62 327.75C153.92 379.61 186.03 422.46 200.09 422.46" stroke="black" stroke-width="3.49" stroke-linecap="round" stroke-linejoin="round"/>
<path d="M155.35 212.57C169.78 208.37 179.58 205.84 193.87 206.12C200.07 206.1 200.07 197.01 200.07 187.2" stroke="black" stroke-width="3.49" stroke-linecap="round" stroke-linejoin="round"/>
<path d="M158.15 258.96C174.19 259.22 189.06 259.61 196.82 255.21C201.61 252.49 200.07 244.73 200.07 235.54" stroke="black" stroke-width="3.49" stroke-linecap="round" stroke-linejoin="round"/>
<path d="M159.68 306.92C174.52 307.45 177.57 308.51 191.48 308.11C198.9 307.56 200.06 304.4 200.06 288.76" stroke="black" stroke-width="3.49" stroke-linecap="round" stroke-linejoin="round"/>
<path d="M167.78 214.61C172.79 213.31 182.89 210.34 191.05 211.73C199.21 213.12 200.07 218.32 200.07 224.35" stroke="black" stroke-width="3.49" stroke-linecap="round" stroke-linejoin="round"/>
<path d="M167.78 264.12C174.37 263.36 183.17 262.38 191.22 262.49C199.27 262.6 200.07 267.93 200.07 276.42" stroke="black" stroke-width="3.49" stroke-linecap="round" stroke-linejoin="round"/>
<path d="M200.3 340.51V408.06" stroke="black" stroke-width="3.49" stroke-linecap="round" stroke-linejoin="round"/>
<path d="M167.78 313.2C173.81 313.07 189.47 314.59 195.02 315.85C200.57 317.11 200.31 323.93 200.31 329.87" stroke="black" stroke-width="3.49" stroke-linecap="round" stroke-linejoin="round"/>
<path d="M85.6602 153.17C109.73 180.18 144.35 201.83 146.02 213.93C148.23 229.94 135.43 263.02 139.58 291.26C143.72 319.5 136.47 337.83 127.12 346.8C119.99 353.64 107.62 356.69 97.0901 354.26" stroke="black" stroke-width="3.49" stroke-linecap="round" stroke-linejoin="round"/>
<path d="M97.0901 354.27C116.77 358.36 150.85 374.45 164.14 419.4C177.42 464.35 184.28 480.98 200.07 480.98" stroke="black" stroke-width="3.49" stroke-linecap="round" stroke-linejoin="round"/>
<path d="M164.7 630.59C165.35 627.46 165.92 624.48 166.43 621.69C177.72 558.53 155.14 605.39 138.03 512.93C129.05 464.36 129.9 375.77 96.72 357.15" stroke="black" stroke-width="3.49" stroke-linecap="round" stroke-linejoin="round"/>
<path d="M200.07 340.51V408.06" stroke="black" stroke-width="3.49" stroke-linecap="round" stroke-linejoin="round"/>
<path d="M200.3 340.51V408.06" stroke="black" stroke-width="3.49" stroke-linecap="round" stroke-linejoin="round"/>
<path d="M200.42 340.51V408.06" stroke="black" stroke-width="3.49" stroke-linecap="round" stroke-linejoin="round"/>
<path d="M389.22 143.89C386.39 141.98 383.06 140.05 379.23 138.33C367.6 133.13 357.75 132.77 355.76 132.71C347.12 132.46 338.89 132.24 332.75 137.25C321.89 146.09 324.99 165.27 326.18 172.62C326.81 176.46 327.75 180.04 328.9 183.39" stroke="black" stroke-width="3.49" stroke-linecap="round" stroke-linejoin="round"/>
<path d="M368.59 232.75C387.46 255.8 403.7 255.69 411.48 251.85C424.51 245.42 431.84 224.34 407.58 170.63C407.58 170.61 407.58 170.58 407.56 170.56" stroke="black" stroke-width="3.49" stroke-linecap="round" stroke-linejoin="round"/>
<path d="M370.57 135.16H370.53" stroke="black" stroke-width="3.49" stroke-linecap="round" stroke-linejoin="round"/>
<path d="M360.09 133.03H360.05C352.24 131.12 346.1 128.82 342.28 126.22C328.92 117.16 318.34 104.72 313.46 98.99C298.28 81.14 296 73.11 280.01 62.95C271.22 57.37 260.22 53.97 260.22 53.97C260.22 53.97 286.65 43.11 311.63 48.13H311.65" stroke="black" stroke-width="3.49" stroke-linecap="round" stroke-linejoin="round"/>
<path d="M260.8 54.14C256.28 52.87 247.05 49.42 229.27 51.11C200.11 53.88 200.42 73.1 200.42 73.1V123.04C200.42 133.24 203.9 143.19 210.5 150.96C216.14 157.59 224.42 164.92 236.05 170C264.67 182.51 298.18 173.66 318.05 149.56C325.51 140.51 333.72 132.61 348.45 132.61" stroke="black" stroke-width="3.49" stroke-linecap="round" stroke-linejoin="round"/>
<path d="M241.9 -2.58997V34.58C241.9 46.3 249.11 50.26 260.22 53.97C260.77 54.16 261.35 54.33 261.93 54.49" stroke="black" stroke-width="3.49" stroke-linecap="round" stroke-linejoin="round"/>
<path d="M200.42 175.65C200.42 159 225.94 166.25 236.05 169.99C247.04 174.06 255.87 178.65 258.77 185.21C262.26 193.09 254.99 197.97 254.13 218.67C253.91 224.06 254.41 223.37 254.32 234.14C254.22 245.37 251.97 294.8 249.87 327.75C246.57 379.61 214.46 422.46 200.4 422.46" stroke="black" stroke-width="3.49" stroke-linecap="round" stroke-linejoin="round"/>
<path d="M245.14 212.57C230.71 208.37 220.91 205.84 206.62 206.12C200.42 206.1 200.42 197.01 200.42 187.2" stroke="black" stroke-width="3.49" stroke-linecap="round" stroke-linejoin="round"/>
<path d="M242.34 258.96C226.3 259.22 211.43 259.61 203.67 255.21C198.88 252.49 200.42 244.73 200.42 235.54" stroke="black" stroke-width="3.49" stroke-linecap="round" stroke-linejoin="round"/>
<path d="M240.81 306.92C225.97 307.45 222.92 308.51 209.01 308.11C201.59 307.56 200.43 304.4 200.43 288.76" stroke="black" stroke-width="3.49" stroke-linecap="round" stroke-linejoin="round"/>
<path d="M232.71 214.61C227.7 213.31 217.6 210.34 209.44 211.73C201.28 213.12 200.42 218.32 200.42 224.35" stroke="black" stroke-width="3.49" stroke-linecap="round" stroke-linejoin="round"/>
<path d="M232.71 264.12C226.12 263.36 217.32 262.38 209.27 262.49C201.22 262.6 200.42 267.93 200.42 276.42" stroke="black" stroke-width="3.49" stroke-linecap="round" stroke-linejoin="round"/>
<path d="M200.19 340.51V408.06" stroke="black" stroke-width="3.49" stroke-linecap="round" stroke-linejoin="round"/>
<path d="M232.71 313.2C226.68 313.07 211.02 314.59 205.47 315.85C199.92 317.11 200.18 323.93 200.18 329.87" stroke="black" stroke-width="3.49" stroke-linecap="round" stroke-linejoin="round"/>
<path d="M314.83 153.17C290.76 180.18 256.14 201.83 254.47 213.93C252.26 229.94 265.06 263.02 260.91 291.26C256.77 319.5 264.02 337.83 273.37 346.8C280.5 353.64 292.87 356.69 303.4 354.26" stroke="black" stroke-width="3.49" stroke-linecap="round" stroke-linejoin="round"/>
<path d="M303.4 354.27C283.72 358.36 249.64 374.45 236.35 419.4C223.07 464.35 216.21 480.98 200.42 480.98" stroke="black" stroke-width="3.49" stroke-linecap="round" stroke-linejoin="round"/>
<path d="M235.79 630.59C235.14 627.46 234.57 624.48 234.06 621.69C222.77 558.53 245.35 605.39 262.46 512.93C271.44 464.36 270.59 375.77 303.77 357.15" stroke="black" stroke-width="3.49" stroke-linecap="round" stroke-linejoin="round"/>
<path d="M151.74 700.84C148.47 708.09 144.88 713.47 142.02 718.6C141.81 718.96 141.61 719.33 141.39 719.69C141.03 720.37 140.69 721.03 140.35 721.71C134.33 733.79 132.96 726.28 137.58 767.51C145.9 828.19 135.03 818.94 130.86 833.05C109.78 900.45 111.21 916.98 112.73 934.06C114.25 951.14 109.44 953.39 109.44 953.39C109.44 953.39 108.08 960.93 108.96 967.9C112.89 990.61 108.57 993.58 101.83 997.42C95.1 1001.26 90.27 1003.76 90.43 1008.48C91.64 1023.17 75.68 1027.65 75.68 1027.65C63.34 1049.24 49.71 1035.35 49.71 1035.35C43.39 1040.96 38.33 1033.83 38.33 1033.83C32.24 1035.51 30.63 1029.01 30.63 1029.01C26.15 1029.17 26.22 1024.53 26.22 1024.53C22.13 1024.46 19.25 1021.01 22.54 1013.06C27.42 1002.23 36.95 995.75 44.1 989.97C51.23 984.18 49.4 983.88 52.39 978.87C55.35 973.88 66.82 956.57 68.52 950.92C68.7 945.31 69.4 940.91 71.22 930.12C74.43 912.68 68.63 881.36 66.04 852.93C51.3 768.91 74.42 722.78 76.35 714.52C76.37 714.47 76.37 714.39 76.39 714.34C78 706.59 77.03 701.74 78.32 694.63C79.62 687.54 81.87 687.86 82.2 660.72C78.32 647.43 75.41 633.95 73.29 620.52C73.27 620.5 73.27 620.48 73.27 620.45C57.32 519.64 85.75 420.59 88.49 409.8C90.49 401.9 93.97 378.85 96.72 357.16C96.85 356.2 96.97 355.23 97.08 354.27C98.44 343.39 99.6 333.04 100.26 325.36C102.28 301.81 110.01 275.94 97.78 251.62C77.35 212.24 72.42 188.15 71.6 183.4C71.49 182.81 71.46 182.52 71.46 182.52C66.67 194.3 57.99 201.1 53.65 205.14C51.45 207.18 41.88 219.54 31.91 232.76C22.23 245.61 12.17 259.28 8.12003 265.08C-4.57997 285.54 -1.62997 290.02 -22.85 316.52C-44.07 343.02 -54.16 343.23 -73.45 363.42C-74.63 364.94 -78 369.62 -80.33 374.02H-80.35C-82.14 377.41 -83.31 380.63 -82.33 382.1C-76.79 389.73 -79.88 398.15 -82.63 401.52C-85.38 404.88 -86.74 409.58 -87.85 418.23C-89.14 432.79 -87.06 445.01 -97.23 444.82C-107.39 444.62 -104.64 417.93 -104.64 417.93C-104.64 417.93 -108.53 418.86 -111 423.92C-114.64 436.2 -118.73 434.68 -120.57 442.41C-122.64 456.63 -124.75 453.2 -122.2 467.35C-121.82 469.44 -121.75 471.21 -121.9 472.69C-122.74 481.23 -130.92 480.48 -130.92 480.48C-130.92 480.48 -135.85 463.31 -136.06 459.97C-136.27 456.63 -136.72 451 -134.7 434.28C-132.68 417.56 -135.9 423.95 -128.25 408.98C-116.44 386.68 -115.62 373.67 -108.32 357.98C-108.32 357.98 -108.34 357.98 -108.32 357.96C-107.44 356.07 -106.46 354.12 -105.36 352.12C-92.54 324.46 -73.32 266.73 -54.1 243.59C-34.88 220.47 -28.67 218.15 -24.49 208.03C-17.43 191.39 -11.74 179.37 -7.07997 170.58C3.37003 150.76 8.44003 147.23 11.26 143.9C12.24 142.74 12.94 141.59 13.51 139.79C21.89 107.84 24.78 106.11 27.1 97.87C40.82 53.06 79.25 50.61 82.58 49.73C83.92 49.39 86.33 48.78 88.85 48.14C88.9 48.12 88.94 48.12 88.98 48.12C92.73 47.16 96.68 46.12 97.62 45.69C99.21 44.96 107.44 37.6 112.5 35.27C117.55 32.96 138.22 24.57 143.42 21.98C148.62 19.37 158.01 10.12 158.01 10.12C158.24 7.68997 158.44 2.91998 158.58 -2.48002V-2.59002C158.88 -14.45 159.03 -29.34 159.03 -29.34C156.14 -35.13 155.56 -44.96 155.56 -44.96C148.33 -43.51 143.13 -46.84 141.68 -66.06C140.23 -85.28 151.54 -81.64 151.54 -81.64" stroke="black" stroke-width="3.49" stroke-linecap="round" stroke-linejoin="round"/>
<path d="M200.42 480.98C202.59 480.98 202.19 489.3 202.7 506.49C204.56 536.6 221.45 575.28 226.08 590.56C230.71 605.85 237.66 632.02 240.2 664.91C242.74 697.8 254.09 709.61 260.11 721.7C266.13 733.79 267.52 726.28 262.89 767.51C254.56 828.19 265.44 818.92 269.6 833.05C290.66 900.45 289.25 916.97 287.72 934.06C286.19 951.15 291.01 953.39 291.01 953.39C291.01 953.39 292.37 960.93 291.49 967.91C287.57 990.6 291.89 993.57 298.63 997.42C305.36 1001.27 310.17 1003.76 310.01 1008.49C308.81 1023.17 324.76 1027.65 324.76 1027.65C337.1 1049.23 350.74 1035.35 350.74 1035.35C357.07 1040.96 362.12 1033.83 362.12 1033.83C368.21 1035.51 369.82 1029.01 369.82 1029.01C374.31 1029.18 374.23 1024.53 374.23 1024.53C378.32 1024.44 381.2 1021 377.92 1013.06C373.03 1002.23 363.49 995.73 356.35 989.96C349.22 984.18 351.04 983.87 348.07 978.87C345.11 973.88 333.64 956.57 331.93 950.91C331.76 945.3 331.06 940.91 329.24 930.12C326.01 912.68 331.82 881.35 334.41 852.92C349.26 768.29 325.69 722.09 324.07 714.34C322.46 706.59 323.42 701.74 322.13 694.64C320.84 687.53 318.58 687.86 318.26 660.72C351.2 547.66 315.07 422.03 311.97 409.79C308.87 397.55 302.21 348.9 300.2 325.35C298.19 301.8 290.44 275.92 302.68 251.6C325.6 207.44 329.01 182.49 329.01 182.49C333.8 194.27 342.48 201.08 346.82 205.11C351.15 209.14 384.14 253.3 392.35 265.07C405.05 285.52 402.11 290.01 423.33 316.51C444.55 343 454.64 343.23 473.94 363.4C476.02 366.13 485.04 378.74 482.81 382.08C477.27 389.7 480.36 398.13 483.12 401.49C485.87 404.86 487.23 409.57 488.32 418.21C489.61 432.77 487.54 445 497.71 444.79C507.88 444.59 505.11 417.91 505.11 417.91C505.11 417.91 509.02 418.84 511.48 423.9C515.12 436.17 519.21 434.64 521.04 442.38C523.12 456.61 525.22 453.17 522.67 467.33C520.12 481.49 531.39 480.46 531.39 480.46C531.39 480.46 536.32 463.3 536.54 459.95C536.75 456.61 537.18 450.98 535.17 434.26C533.16 417.53 536.37 423.93 528.73 408.95C515.49 383.94 516.06 370.62 505.83 352.09C493.01 324.44 473.79 266.7 454.57 243.57C435.36 220.44 429.14 218.13 424.95 208.01C396.49 140.79 389.84 149.04 386.95 139.78C378.57 107.84 375.68 106.1 373.37 97.86C359.65 53.05 321.21 50.59 317.89 49.72C314.56 48.85 304.45 46.4 302.86 45.67C301.27 44.95 293.03 37.57 287.98 35.27C282.92 32.95 262.25 24.57 257.06 21.96C251.86 19.36 242.47 10.11 242.47 10.11C241.75 2.30002 241.46 -29.36 241.46 -29.36C244.35 -35.14 244.92 -44.97 244.92 -44.97C252.15 -43.52 257.35 -46.85 258.8 -66.07C259.72 -78.36 255.43 -81.31 252.23 -81.83C251.11 -82 250.11 -81.89 249.52 -81.79" stroke="black" stroke-width="3.49" stroke-linecap="round" stroke-linejoin="round"/>
<path d="M407.07 232.7C407.07 232.7 407.03 232.63 407.02 232.61C406.93 232.5 406.86 232.4 406.79 232.29C406.63 232.08 406.54 231.95 406.54 231.95C382.09 192.35 348.5 158.94 360.09 133.04" stroke="black" stroke-width="3.49" stroke-linecap="round" stroke-linejoin="round"/>
<path d="M215.06 54.49C263.07 77.2 279.03 118.11 353.3 132.63" stroke="black" stroke-width="3.49" stroke-linecap="round" stroke-linejoin="round"/>
<path d="M299.61 667.49C253.18 648.54 319.1 538.1 291.37 369.41" stroke="black" stroke-width="3.49" stroke-linecap="round" stroke-linejoin="round"/>
<path d="M334.95 135.78C334.95 135.78 351.84 143.97 363.85 166.55" stroke="black" stroke-width="3.49" stroke-linecap="round" stroke-linejoin="round"/>
<path d="M353.3 132.63C353.3 132.13 353.28 131.63 353.26 131.11C352.58 110.88 345.28 69.79 299.8 46.84" stroke="black" stroke-width="3.49" stroke-linecap="round" stroke-linejoin="round"/>
<path d="M47.2 132.63C47.2 132.13 47.22 131.63 47.24 131.11C47.92 110.88 55.22 69.79 100.7 46.84" stroke="black" stroke-width="3.49" stroke-linecap="round" stroke-linejoin="round"/>
<path d="M-6.58008 232.7C-6.58008 232.7 -6.54008 232.63 -6.53008 232.61C-6.44008 232.5 -6.37008 232.4 -6.30008 232.29C-6.14008 232.08 -6.05008 231.95 -6.05008 231.95C18.3999 192.35 51.9899 158.94 40.3999 133.04" stroke="black" stroke-width="3.49" stroke-linecap="round" stroke-linejoin="round"/>
<path d="M185.43 54.49C137.42 77.2 121.46 118.11 47.1899 132.63" stroke="black" stroke-width="3.49" stroke-linecap="round" stroke-linejoin="round"/>
<path d="M100.89 667.49C147.32 648.54 81.4001 538.1 109.13 369.41" stroke="black" stroke-width="3.49" stroke-linecap="round" stroke-linejoin="round"/>
<path d="M65.5401 135.78C65.5401 135.78 48.6501 143.97 36.6401 166.55" stroke="black" stroke-width="3.49" stroke-linecap="round" stroke-linejoin="round"/>
</g>
</g>
<defs>
<clipPath id="clip0_29_143">
<rect width="400" height="400" fill="white"/>
</clipPath>
<clipPath id="clip1_29_143">
<rect width="676.49" height="1203.49" fill="white" transform="translate(-138 -162)"/>
</clipPath>
</defs>
</svg>
