<svg width="400" height="400" viewBox="0 0 400 400" fill="none" xmlns="http://www.w3.org/2000/svg">
<g clip-path="url(#clip0_29_532)">
<rect width="400" height="400" fill="white"/>
<g clip-path="url(#clip1_29_532)">
<path d="M280.92 30.07C281.19 37.68 283.153 43.77 286.748 48.1C257.946 87.21 228.112 129.29 207.611 176C207.181 175.86 206.77 175.68 206.379 175.48C201.102 172.85 197.096 166.58 195.934 159.09V159.04C196.845 157.09 197.827 155.2 198.888 153.29C202.644 145.23 206.99 134.46 211.587 123.06C222.734 95.49 236.574 61.18 250.204 44.81C258.286 35.07 264.125 29 268.391 24.55C274.22 18.46 277.444 15.08 279.888 9.19998C284.945 -2.74002 289.622 -13.03 293.879 -21.52C284.845 -0.19002 280.479 17.15 280.91 30.07H280.92Z" fill="#FB6565"/>
<path d="M332.315 38.58C323.943 49.71 315.721 60.95 312.136 66.04C307.429 73.63 304.895 78.98 302.421 84.14C298.365 92.72 294.52 100.79 281.14 117.46C268.872 132.77 260.459 139.19 251.556 145.98C245.207 150.82 238.637 155.83 230.465 164.37C229.353 165.8 225.958 170.46 223.595 174.93C218.037 177.31 212.469 177.74 208.032 176.16C228.492 129.56 258.296 87.52 287.039 48.45C288.721 50.42 290.744 51.97 293.098 53.13C295.301 54.22 297.905 54.88 300.789 55.02C300.829 55.02 300.839 55.04 300.879 55.04H300.949C301.31 55.06 301.65 55.09 302.001 55.09C310.353 55.09 320.999 50.66 332.305 38.56L332.315 38.58Z" fill="#FB6565"/>
<path d="M195.724 157.95V157.97C196.886 165.66 200.912 171.93 206.279 174.61C211.137 177.03 217.526 176.7 223.745 174.03" stroke="black" stroke-width="3.49" stroke-linecap="round" stroke-linejoin="round"/>
<path d="M336.151 32.75C317.253 55.8 300.989 55.69 293.198 51.85C280.148 45.42 272.807 24.34 297.103 -29.37C297.103 -29.39 297.103 -29.42 297.123 -29.44" stroke="black" stroke-width="3.49" stroke-linecap="round" stroke-linejoin="round"/>
<path d="M389.99 -46.83C414.096 -19.82 448.767 1.83002 450.44 13.93C452.653 29.94 439.834 63.02 443.99 91.26C448.136 119.5 440.876 137.83 431.512 146.8C424.371 153.64 411.983 156.69 401.437 154.26" stroke="black" stroke-width="3.49" stroke-linecap="round" stroke-linejoin="round"/>
<path d="M401.438 154.27C421.147 158.36 455.277 174.45 468.587 219.4C481.886 264.35 488.756 280.98 504.57 280.98" stroke="black" stroke-width="3.49" stroke-linecap="round" stroke-linejoin="round"/>
<path d="M469.147 430.59C469.798 427.46 470.369 424.48 470.88 421.69C482.187 358.53 459.573 405.39 442.438 312.93C433.445 264.36 434.296 175.77 401.067 157.15" stroke="black" stroke-width="3.49" stroke-linecap="round" stroke-linejoin="round"/>
<path d="M456.168 500.84C452.893 508.09 449.298 513.47 446.434 518.6C446.223 518.96 446.023 519.33 445.803 519.69C445.442 520.37 445.102 521.03 444.761 521.71C438.732 533.79 437.36 526.28 441.987 567.51C450.32 628.19 439.433 618.94 435.257 633.05C414.146 700.45 415.578 716.98 417.101 734.06C418.623 751.14 413.806 753.39 413.806 753.39C413.806 753.39 412.444 760.93 413.325 767.9C417.261 790.61 412.934 793.58 406.184 797.42C399.444 801.26 394.607 803.76 394.768 808.48C395.979 823.17 379.996 827.65 379.996 827.65C367.638 849.24 353.987 835.35 353.987 835.35C347.658 840.96 342.591 833.83 342.591 833.83C336.492 835.51 334.879 829.01 334.879 829.01C330.393 829.17 330.463 824.53 330.463 824.53C326.367 824.46 323.482 821.01 326.777 813.06C331.664 802.23 341.209 795.75 348.369 789.97C355.51 784.18 353.677 783.88 356.671 778.87C359.636 773.88 371.123 756.57 372.825 750.92C373.005 745.31 373.706 740.91 375.529 730.12C378.744 712.68 372.935 681.36 370.341 652.93C355.58 568.91 378.734 522.78 380.667 514.52C380.687 514.47 380.687 514.39 380.707 514.34C382.319 506.59 381.348 501.74 382.64 494.63C383.942 487.54 386.195 487.86 386.525 460.72C382.64 447.43 379.725 433.95 377.602 420.52C377.582 420.5 377.582 420.48 377.582 420.45C361.609 319.64 390.081 220.59 392.825 209.8C394.828 201.9 398.313 178.85 401.067 157.16C401.197 156.2 401.317 155.23 401.427 154.27C402.789 143.39 403.951 133.04 404.612 125.36C406.635 101.81 414.376 75.94 402.128 51.62C381.668 12.24 376.731 -11.85 375.91 -16.6C375.8 -17.19 375.77 -17.48 375.77 -17.48C370.972 -5.70001 362.28 1.10002 357.933 5.14002C355.73 7.18002 346.146 19.54 336.161 32.76C326.467 45.61 316.392 59.28 312.336 65.08C299.617 85.54 302.571 90.02 281.32 116.52C260.069 143.02 249.964 143.23 230.645 163.42C229.464 164.94 226.089 169.62 223.755 174.02H223.735C221.942 177.41 220.771 180.63 221.752 182.1C227.3 189.73 224.206 198.15 221.452 201.52C218.698 204.88 217.336 209.58 216.224 218.23C214.932 232.79 217.015 245.01 206.83 244.82C196.655 244.62 199.409 217.93 199.409 217.93C199.409 217.93 195.513 218.86 193.04 223.92C189.394 236.2 185.298 234.68 183.456 242.41C181.383 256.63 179.269 253.2 181.823 267.35C182.204 269.44 182.274 271.21 182.124 272.69C181.282 281.23 173.09 280.48 173.09 280.48C173.09 280.48 168.153 263.31 167.943 259.97C167.732 256.63 167.282 251 169.305 234.28C171.328 217.56 168.103 223.95 175.764 208.98C187.592 186.68 188.413 173.67 195.724 157.98C195.724 157.98 195.704 157.98 195.724 157.96C196.605 156.07 197.587 154.12 198.688 152.12C211.527 124.46 230.776 66.73 250.024 43.59C269.272 20.47 275.492 18.15 279.678 8.03C286.748 -8.61 292.447 -20.63 297.113 -29.42C307.579 -49.24 312.656 -52.77 315.481 -56.1C316.462 -57.26 317.163 -58.41 317.734 -60.21C326.126 -92.16 329.021 -93.89 331.344 -102.13C345.084 -146.94 383.571 -149.39 386.906 -150.27C388.248 -150.61 390.662 -151.22 393.185 -151.86C393.235 -151.88 393.275 -151.88 393.315 -151.88C397.071 -152.84 401.027 -153.88 401.968 -154.31C403.561 -155.04 411.803 -162.4 416.87 -164.73C421.928 -167.04 442.628 -175.43 447.836 -178.02C453.044 -180.63 462.447 -189.88 462.447 -189.88C462.678 -192.31 462.878 -197.08 463.018 -202.48V-202.59C463.319 -214.45 463.469 -229.34 463.469 -229.34C460.575 -235.13 459.994 -244.96 459.994 -244.96C452.753 -243.51 447.545 -246.84 446.093 -266.06C444.641 -285.28 455.968 -281.64 455.968 -281.64" stroke="black" stroke-width="3.49" stroke-linecap="round" stroke-linejoin="round"/>
<path d="M182.124 272.69C182.124 272.69 190.787 273.77 189.405 265.27C188.022 256.77 189.775 254.83 189.595 246.46C189.425 238.09 195.904 238.11 194.232 221.99" stroke="black" stroke-width="3.49" stroke-linecap="round" stroke-linejoin="round"/>
<path d="M207.711 175.24C228.732 127.3 259.388 84.56 287.008 47.07" stroke="black" stroke-width="3.49" stroke-linecap="round" stroke-linejoin="round"/>
<path d="M297.614 32.7C297.614 32.7 297.654 32.63 297.664 32.61C297.754 32.5 297.825 32.4 297.895 32.29C298.055 32.08 298.145 31.95 298.145 31.95C322.631 -7.64996 356.271 -41.06 344.664 -66.96" stroke="black" stroke-width="3.49" stroke-linecap="round" stroke-linejoin="round"/>
<path d="M405.243 467.49C451.742 448.54 385.724 338.1 413.495 169.41" stroke="black" stroke-width="3.49" stroke-linecap="round" stroke-linejoin="round"/>
<path d="M298.155 31.95C298.155 31.95 284.725 50.17 300.939 53.76" stroke="black" stroke-width="3.49" stroke-linecap="round" stroke-linejoin="round"/>
<path d="M221 181.247C209 190.5 191.5 176.5 191.5 169L195.5 160.5C201.702 173.142 205.402 178.773 222.5 175L221 181.247Z" stroke="black" stroke-width="3.49" stroke-linecap="round"/>
</g>
</g>
<defs>
<clipPath id="clip0_29_532">
<rect width="400" height="400" fill="white"/>
</clipPath>
<clipPath id="clip1_29_532">
<rect width="677.49" height="1203.49" fill="white" transform="translate(166 -362)"/>
</clipPath>
</defs>
</svg>
